<svg xmlns="http://www.w3.org/2000/svg" viewBox="0 0 32 32" aria-hidden="true" role="presentation" focusable="false" style="display: block; height: 24px; width: 24px; fill: currentcolor;"><path d="M30 1a1 1 0 0 1 1 .88V30a1 1 0 0 1-.88 1H2a1 1 0 0 1-1-.88V2a1 1 0 0 1 .88-1H2zM3 3v26h12V3zm7 9v6.58l1.8-1.79 1.4 1.42-3.5 3.5a1 1 0 0 1-1.31.08l-.1-.08-3.5-3.5 1.42-1.42L8 18.6V12zm12.39-1.5a1 1 0 0 1 1.22 0l.1.09 3.5 3.5-1.42 1.41L24 13.7V20h-2v-6.3l-1.8 1.8-1.4-1.41 3.5-3.5zM17 29h12V3H17z"></path></svg>