<svg xmlns="http://www.w3.org/2000/svg" viewBox="0 0 32 32" aria-hidden="true" role="presentation" focusable="false" style="display: block; height: 24px; width: 24px; fill: currentcolor;"><path d="M10 2a3 3 0 0 1 3 2.82V16h14a1 1 0 0 1 1 .88V17a8 8 0 0 1-7.75 8h-4.77l1.45 3.63a1 1 0 0 1-.7 1.35l-.11.01L16 30H4a1 1 0 0 1-1-.88V5a3 3 0 0 1 2.82-3H10zm15.91 16H5v10h9.52l-1.45-3.63a1 1 0 0 1 .7-1.35l.11-.01L14 23h6a6 6 0 0 0 5.85-4.67l.05-.23.01-.1zM10 4H6a1 1 0 0 0-1 .88V16h6V5a1 1 0 0 0-.77-.97L10.12 4 10 4zm11 9a1 1 0 1 1 0 2 1 1 0 0 1 0-2zm0-3a1 1 0 1 1 0 2 1 1 0 0 1 0-2zm4 0a1 1 0 1 1 0 2 1 1 0 0 1 0-2zm-8 0a1 1 0 1 1 0 2 1 1 0 0 1 0-2zm6-2a1 1 0 1 1 0 2 1 1 0 0 1 0-2zm-4 0a1 1 0 1 1 0 2 1 1 0 0 1 0-2zM8 6a1 1 0 1 1 0 2 1 1 0 0 1 0-2z"></path></svg>