<svg xmlns="http://www.w3.org/2000/svg" viewBox="0 0 32 32" aria-hidden="true" role="presentation" focusable="false" style="display: block; height: 24px; width: 24px; fill: currentcolor;"><path d="M2 31a1 1 0 0 1-1-1 9 9 0 0 1 17.95-1H21c.74 0 1.43-.27 1.97-.74A2.99 2.99 0 0 0 24 26.2L24 26V14H13v6h-2v-7a1 1 0 0 1 .88-1H25a1 1 0 0 1 1 .88V15h4a1 1 0 0 1 1 .88V25a1 1 0 0 1-.88 1H26a4.99 4.99 0 0 1-1.71 3.77 4.98 4.98 0 0 1-3.03 1.22L21 31zm3.85-6.64a7 7 0 0 0-2.7 4.16l-.05.3-.03.18h4.1zM10 23c-.82 0-1.61.14-2.35.4l1.6 5.6h1.5l1.6-5.6a6.97 6.97 0 0 0-1.86-.38l-.25-.02zm4.15 1.36L12.82 29h4.1l-.02-.18a7 7 0 0 0-2.75-4.46zM29 17h-3v7h3zM20 1c0 2.06-.48 3.34-1.77 5.42l-.75 1.19C16.6 9 16.2 9.9 16.06 11h-2.02c.15-1.61.71-2.84 1.91-4.73l.57-.88c1.11-1.79 1.47-2.78 1.47-4.4zm5 0c0 2.06-.48 3.34-1.77 5.42l-.75 1.19C21.6 9 21.2 9.9 21.06 11h-2.02c.15-1.61.71-2.84 1.91-4.73l.57-.88c1.11-1.79 1.47-2.78 1.47-4.4z"></path></svg>