<svg xmlns="http://www.w3.org/2000/svg" viewBox="0 0 32 32" aria-hidden="true" role="presentation" focusable="false" style="display: block; height: 24px; width: 24px; fill: currentcolor;"><path d="M26.8 4a3 3 0 0 0-1.87.83l-.02.02-.11-.02A47.19 47.19 0 0 0 7.94 4.7l-.85.15-.02-.02A3 3 0 0 0 2 7v.21a3 3 0 0 0 .56 1.54l.03.03-.05.28a44.99 44.99 0 0 0 0 13.88l.05.28-.03.03A3 3 0 0 0 5 28h.2a3 3 0 0 0 1.87-.83l.02-.02.11.02a47.19 47.19 0 0 0 16.86.13l.85-.15.02.02A3 3 0 0 0 30 25v-.21a3 3 0 0 0-.56-1.54l-.03-.03.05-.28c.71-4.74.72-9.16 0-13.88l-.05-.28.03-.03A3 3 0 0 0 27 4h-.2zm.2 2a1 1 0 0 1 .68 1.74l-.4.36.09.54a43.3 43.3 0 0 1 0 14.72l-.1.54.4.36a1 1 0 1 1-1.52 1.27l-.37-.6-.68.15a45.29 45.29 0 0 1-18.2 0l-.68-.14-.37.59a1 1 0 1 1-1.52-1.27l.4-.36-.1-.54a43.25 43.25 0 0 1 0-14.72l.1-.54-.4-.36a1 1 0 1 1 1.52-1.27l.37.6.68-.15a45.29 45.29 0 0 1 18.2 0l.68.14.37-.59A1 1 0 0 1 27 6z"></path></svg>