<svg xmlns="http://www.w3.org/2000/svg" viewBox="0 0 32 32" aria-hidden="true" role="presentation" focusable="false" style="display: block; height: 24px; width: 24px; fill: currentcolor;"><path d="M18 1v2h-7v2h1a2 2 0 0 1 2 1.85V9.1a5 5 0 0 1 4 4.67V28a3 3 0 0 1-2.82 3H5a3 3 0 0 1-3-2.82V14a5 5 0 0 1 4-4.9V7a2 2 0 0 1 1.85-2H9V3H6V1h12zm-2 15.06c-1.14.15-2.08.6-3.58 1.55l-.34.23C9.63 19.41 8.29 20 6 20a9 9 0 0 1-2-.22V28a1 1 0 0 0 .88 1H15a1 1 0 0 0 1-.88V16.06zM27 13a3 3 0 1 1 0 6 3 3 0 0 1 0-6zm-14-2H7a3 3 0 0 0-3 2.82v3.89A6.85 6.85 0 0 0 6 18c1.63 0 2.64-.36 4.4-1.46l.64-.4c2.01-1.32 3.28-1.93 4.96-2.09V14a3 3 0 0 0-3-3zm14 4a1 1 0 1 0 0 2 1 1 0 0 0 0-2zM25 2a4 4 0 1 1 0 8 4 4 0 0 1 0-8zM12 7H8v2h4V7zm13-3a2 2 0 1 0 0 4 2 2 0 0 0 0-4z"></path></svg>